<svg width="44" height="44" viewBox="0 0 44 44" fill="none" xmlns="http://www.w3.org/2000/svg">
<rect width="44" height="44" rx="8" fill="white"/>
<path fill-rule="evenodd" clip-rule="evenodd" d="M1.54211 28.0197L9.80358 17.2617L12.0637 18.4271L17.4415 10L20.7928 13.8551L22.0399 12.8689L26.872 18.7858L30.3013 14.8411L39.8875 28.0197L30.652 16.8136L29.249 21.5202L30.535 25.2407L22.2736 14.2585L22.1842 18.0056L26.872 28.0197L18.1038 12.5102L20.6369 20.8926L17.0909 12.7343L15.1424 18.1583L15.5319 14.6169L10.6608 27.3922L11.2452 22.0132L9.21887 19.8617L1.54211 28.0197Z" fill="#011C40"/>
<path fill-rule="evenodd" clip-rule="evenodd" d="M42.6649 29.7024C29.5846 19.511 9.22544 33.522 1 28.1188C10.0434 35.7756 31.1812 22.832 42.6649 29.7024Z" fill="#011C40"/>
<path fill-rule="evenodd" clip-rule="evenodd" d="M43 30.5038C32.7374 24.1941 17.4741 32.9749 9.65134 30.9415C18.128 34.9111 33.9089 26.1156 43 30.5038Z" fill="#011C40"/>
</svg>
